<?xml version="1.0" encoding="UTF-8" standalone="no"?>
<svg
   xmlns:dc="http://purl.org/dc/elements/1.1/"
   xmlns:cc="http://creativecommons.org/ns#"
   xmlns:rdf="http://www.w3.org/1999/02/22-rdf-syntax-ns#"
   xmlns:svg="http://www.w3.org/2000/svg"
   xmlns="http://www.w3.org/2000/svg"
   xmlns:xlink="http://www.w3.org/1999/xlink"
   xmlns:sodipodi="http://sodipodi.sourceforge.net/DTD/sodipodi-0.dtd"
   xmlns:inkscape="http://www.inkscape.org/namespaces/inkscape"
   inkscape:export-ydpi="215.44792"
   inkscape:export-xdpi="215.44792"
   inkscape:export-filename="/home/byron/art/cards/final/PNGs/A_of_clubs.png"
   sodipodi:docname="ace_of_clubs.svg"
   inkscape:version="1.0 (4035a4fb49, 2020-05-01)"
   version="1.1"
   id="svg2"
   xml:space="preserve"
   viewBox="0 0 167.0869141 242.6669922"
   height="242.6669922pt"
   width="167.0869141pt"><metadata
   id="metadata43"><rdf:RDF><cc:Work
       rdf:about=""><dc:format>image/svg+xml</dc:format><dc:type
         rdf:resource="http://purl.org/dc/dcmitype/StillImage" /><dc:title /></cc:Work></rdf:RDF></metadata><defs
   id="defs41"><radialGradient
     gradientTransform="matrix(-1.5605256,0.01828294,-0.02684055,-2.2909528,123.98377,58.809108)"
     gradientUnits="userSpaceOnUse"
     r="9.5"
     fy="18.137882"
     fx="48.231091"
     cy="18.137882"
     cx="48.231091"
     id="radialGradient3760"
     xlink:href="#linearGradient2984"
     inkscape:collect="always" /><linearGradient
     id="linearGradient2984"><stop
       id="stop2986"
       offset="0"
       style="stop-color:#000000;stop-opacity:1;" /><stop
       id="stop2988"
       offset="1"
       style="stop-color:#000000;stop-opacity:0.65648854;" /></linearGradient><radialGradient
     gradientUnits="userSpaceOnUse"
     gradientTransform="matrix(1.1529891,-0.67391547,0.39482025,0.67549043,-233.63262,270.40076)"
     r="81.902771"
     fy="511.22299"
     fx="171.48665"
     cy="511.22299"
     cx="171.48665"
     id="radialGradient3792"
     xlink:href="#linearGradient3784"
     inkscape:collect="always" /><linearGradient
     id="linearGradient3784"><stop
       id="stop3786"
       offset="0"
       style="stop-color:#ffffff;stop-opacity:0.53435117;" /><stop
       id="stop3788"
       offset="1"
       style="stop-color:#000000;stop-opacity:0;" /></linearGradient><filter
     height="1.3248404"
     y="-0.16242018"
     width="1.2786888"
     x="-0.13934441"
     id="filter3834"
     inkscape:collect="always"
     color-interpolation-filters="sRGB"><feGaussianBlur
       id="feGaussianBlur3836"
       stdDeviation="9.5105772"
       inkscape:collect="always" /></filter><radialGradient
     inkscape:collect="always"
     xlink:href="#linearGradient3784-4"
     id="radialGradient3855"
     gradientUnits="userSpaceOnUse"
     gradientTransform="matrix(1.1529891,-0.67391547,0.39482025,0.67549043,-233.63262,270.40076)"
     cx="171.48665"
     cy="511.22299"
     fx="171.48665"
     fy="511.22299"
     r="81.902771" /><linearGradient
     id="linearGradient3784-4"><stop
       id="stop3786-8"
       offset="0"
       style="stop-color:#ffffff;stop-opacity:0.51908398;" /><stop
       id="stop3788-6"
       offset="1"
       style="stop-color:#000000;stop-opacity:0;" /></linearGradient><filter
     height="1.3248404"
     y="-0.16242018"
     width="1.2786888"
     x="-0.13934441"
     id="filter3834-6"
     inkscape:collect="always"
     color-interpolation-filters="sRGB"><feGaussianBlur
       id="feGaussianBlur3836-6"
       stdDeviation="9.5105772"
       inkscape:collect="always" /></filter><radialGradient
     inkscape:collect="always"
     xlink:href="#linearGradient3784-3"
     id="radialGradient3916"
     gradientUnits="userSpaceOnUse"
     gradientTransform="matrix(1.1529891,-0.67391547,0.39482025,0.67549043,-233.63262,270.40076)"
     cx="181.69392"
     cy="461.84113"
     fx="181.69392"
     fy="461.84113"
     r="81.902771" /><linearGradient
     id="linearGradient3784-3"><stop
       id="stop3786-86"
       offset="0"
       style="stop-color:#ffffff;stop-opacity:0.70229006;" /><stop
       id="stop3788-2"
       offset="1"
       style="stop-color:#000000;stop-opacity:0;" /></linearGradient><filter
     height="1.3248404"
     y="-0.16242018"
     width="1.2786888"
     x="-0.13934441"
     id="filter3834-7"
     inkscape:collect="always"
     color-interpolation-filters="sRGB"><feGaussianBlur
       id="feGaussianBlur3836-0"
       stdDeviation="9.5105772"
       inkscape:collect="always" /></filter></defs><sodipodi:namedview
   inkscape:document-rotation="0"
   inkscape:current-layer="svg2"
   inkscape:window-maximized="1"
   inkscape:window-y="-8"
   inkscape:window-x="-8"
   inkscape:cy="148.16686"
   inkscape:cx="188.71531"
   inkscape:zoom="2.4336873"
   showgrid="false"
   id="namedview39"
   inkscape:window-height="1377"
   inkscape:window-width="2560"
   inkscape:pageshadow="2"
   inkscape:pageopacity="0"
   guidetolerance="10"
   gridtolerance="10"
   objecttolerance="10"
   borderopacity="1"
   bordercolor="#666666"
   pagecolor="#ffffff" />
	<g
   style="fill-rule:nonzero;clip-rule:nonzero;stroke:#000000;stroke-miterlimit:4;"
   id="Layer_x0020_1">
		<path
   id="path5"
   d="M166.8369141,235.5478516c0,3.7773438-3.0869141,6.8691406-6.8710938,6.8691406H7.1108398c-3.7749023,0-6.8608398-3.0917969-6.8608398-6.8691406V7.1201172C0.25,3.3427734,3.3359375,0.25,7.1108398,0.25h152.8549805    c3.7841797,0,6.8710938,3.0927734,6.8710938,6.8701172v228.4277344z"
   style="fill:#FFFFFF;stroke-width:0.5;" />
		<g
   id="g7"
   style="stroke:none;">
			<g
   id="g9">
				
			</g>
			
		</g>
		<g
   id="g15">
			
		</g>
		<g
   id="g19">
			
		</g>
		<g
   id="g23"
   style="stroke:none;">
			<g
   id="g25">
				
			</g>
			
		</g>
		<g
   id="g31"
   style="stroke:none;">
			<g
   id="g33">
				
			</g>
			
		</g>
	</g>
<g
   style="font-style:normal;font-weight:normal;line-height:0%;font-family:'Bitstream Vera Sans';letter-spacing:0px;word-spacing:0px;fill:#000000;fill-opacity:1;stroke:none"
   id="text3788"
   aria-label="A"><path
     id="path876"
     style="font-style:normal;font-variant:normal;font-weight:normal;font-stretch:normal;font-size:32px;line-height:1.25;font-family:Arial;-inkscape-font-specification:Arial"
     d="M 6.6636705,27.548409 15.460546,4.6421585 h 3.265625 l 9.375,22.9062505 h -3.453125 l -2.671875,-6.9375 h -9.578125 l -2.5156255,6.9375 z m 6.6093755,-9.40625 h 7.765625 l -2.390625,-6.34375 q -1.09375,-2.8906255 -1.625,-4.7500005 -0.4375,2.203125 -1.234375,4.3750005 z" /></g>


<g
   id="g3804"
   transform="matrix(0.20614599,0,0,0.20614599,8.8705463,16.512759)"><g
     transform="matrix(28.969925,0,0,28.969925,-1031.5368,-187.37665)"
     id="layer1-1"><path
       id="cl"
       d="m 50.291466,22.698228 c 0,0 2.375,-1.9 2.375,-4.534 0,-1.542 -1.369,-4.102 -4.534,-4.102 -3.165,0 -4.534,2.561 -4.534,4.102 0,2.634 2.375,4.534 2.375,4.534 -2.638,-2.055 -7.341,-0.652 -7.341,3.455 0,2.056 1.68,4.318 4.318,4.318 3.165,0 4.534,-3.455 4.534,-3.455 0,0 0.402,3.938 -1.943,6.046 h 5.182 c -2.345,-2.107 -1.943,-6.046 -1.943,-6.046 0,0 1.369,3.455 4.534,3.455 2.639,0 4.318,-2.263 4.318,-4.318 0,-4.107 -4.703,-5.51 -7.341,-3.455 z"
       inkscape:connector-curvature="0"
       style="fill:url(#radialGradient3760);fill-opacity:1" /></g><path
     style="fill:url(#radialGradient3792);fill-opacity:1;stroke:none;filter:url(#filter3834)"
     d="m 117.3013,604.26609 c 0,0 -8.06755,-94.94997 22.85715,-122.85714 34.76052,-31.36871 140,-11.42857 140,-11.42857 0,0 -71.5404,24.83762 -100,48.57143 -27.21033,22.69199 -62.85715,85.71428 -62.85715,85.71428 z"
     id="path3762"
     inkscape:connector-curvature="0"
     sodipodi:nodetypes="cscsc"
     transform="matrix(1.1091261,0,0,1.2071687,-37.349149,-111.34227)" /><path
     style="fill:url(#radialGradient3855);fill-opacity:1;stroke:none;filter:url(#filter3834-6)"
     d="m 117.3013,604.26609 c 0,0 -8.06755,-94.94997 22.85715,-122.85714 34.76052,-31.36871 140,-11.42857 140,-11.42857 0,0 -71.5404,24.83762 -100,48.57143 -27.21033,22.69199 -62.85715,85.71428 -62.85715,85.71428 z"
     id="path3762-6"
     inkscape:connector-curvature="0"
     sodipodi:nodetypes="cscsc"
     transform="matrix(1.1091261,0,0,1.2071687,117.2523,-332.26545)" /><path
     style="fill:url(#radialGradient3916);fill-opacity:1;stroke:none;filter:url(#filter3834-7)"
     d="m 117.3013,604.26609 c 0,0 -8.06755,-94.94997 22.85715,-122.85714 34.76052,-31.36871 140,-11.42857 140,-11.42857 0,0 -71.5404,24.83762 -100,48.57143 -27.21033,22.69199 -62.85715,85.71428 -62.85715,85.71428 z"
     id="path3762-7"
     inkscape:connector-curvature="0"
     sodipodi:nodetypes="cscsc"
     transform="matrix(1.1420384,0.7029084,-0.84188482,1.367838,729.37187,-305.07466)" /><path
     inkscape:connector-curvature="0"
     style="fill:#fffeff;fill-opacity:1;fill-rule:nonzero;stroke:none"
     d="m 28.355532,122.02522 0,734.28125 667.156248,0 0,-734.28125 -667.156248,0 z m 334.281258,97.625 c 91.68979,0 131.37499,74.17213 131.37499,118.84375 0,76.30678 -68.8125,131.34375 -68.8125,131.34375 76.42266,-59.5332 212.65625,-18.88573 212.65625,100.09375 0,59.5332 -48.64211,125.09375 -125.09375,125.09375 -91.68982,0 -131.34374,-100.09375 -131.34374,-100.09375 0,0 -11.65322,114.11662 56.28124,175.15625 l -150.12499,0 c 67.93447,-61.0686 56.3125,-175.15625 56.3125,-175.15625 0,0 -39.65394,100.09375 -131.34375,100.09375 -76.42266,0 -125.093758,-65.53158 -125.093758,-125.09375 0,-118.97948 136.233598,-159.62695 212.656258,-100.09375 0,0 -68.8125,-55.03697 -68.8125,-131.34375 0,-44.64265 39.65394,-118.84375 131.34375,-118.84375 z"
     id="rect3015" /></g><g
   id="layer1-1-4"
   transform="matrix(1.4856506,0,0,1.4856506,-54.024661,10.018072)"><path
     style="fill:#000000"
     inkscape:connector-curvature="0"
     d="m 50.291466,22.698228 c 0,0 2.375,-1.9 2.375,-4.534 0,-1.542 -1.369,-4.102 -4.534,-4.102 -3.165,0 -4.534,2.561 -4.534,4.102 0,2.634 2.375,4.534 2.375,4.534 -2.638,-2.055 -7.341,-0.652 -7.341,3.455 0,2.056 1.68,4.318 4.318,4.318 3.165,0 4.534,-3.455 4.534,-3.455 0,0 0.402,3.938 -1.943,6.046 h 5.182 c -2.345,-2.107 -1.943,-6.046 -1.943,-6.046 0,0 1.369,3.455 4.534,3.455 2.639,0 4.318,-2.263 4.318,-4.318 0,-4.107 -4.703,-5.51 -7.341,-3.455 z"
     id="cl-9" /></g><g
   style="font-style:normal;font-weight:normal;line-height:0%;font-family:'Bitstream Vera Sans';letter-spacing:0px;word-spacing:0px;fill:#000000;fill-opacity:1;stroke:none"
   id="text3788-8"
   transform="scale(-1)"
   aria-label="A"><path
     id="path879"
     style="font-style:normal;font-variant:normal;font-weight:normal;font-stretch:normal;font-size:32px;line-height:1.25;font-family:Arial;-inkscape-font-specification:Arial"
     d="m -160.51083,-214.4666 8.79687,-22.90625 h 3.26563 l 9.375,22.90625 h -3.45313 l -2.67187,-6.9375 h -9.57813 l -2.51562,6.9375 z m 6.60937,-9.40625 h 7.76563 l -2.39063,-6.34375 q -1.09375,-2.89062 -1.625,-4.75 -0.4375,2.20313 -1.23437,4.375 z" /></g>
<g
   id="layer1-1-4-1"
   transform="matrix(-1.4856506,0,0,-1.4856506,221.19916,232.46182)"><path
     style="fill:#000000"
     inkscape:connector-curvature="0"
     d="m 50.291466,22.698228 c 0,0 2.375,-1.9 2.375,-4.534 0,-1.542 -1.369,-4.102 -4.534,-4.102 -3.165,0 -4.534,2.561 -4.534,4.102 0,2.634 2.375,4.534 2.375,4.534 -2.638,-2.055 -7.341,-0.652 -7.341,3.455 0,2.056 1.68,4.318 4.318,4.318 3.165,0 4.534,-3.455 4.534,-3.455 0,0 0.402,3.938 -1.943,6.046 h 5.182 c -2.345,-2.107 -1.943,-6.046 -1.943,-6.046 0,0 1.369,3.455 4.534,3.455 2.639,0 4.318,-2.263 4.318,-4.318 0,-4.107 -4.703,-5.51 -7.341,-3.455 z"
     id="cl-9-7" /></g></svg>
