<?xml version="1.0" encoding="UTF-8" standalone="no"?>
<svg
   xmlns:dc="http://purl.org/dc/elements/1.1/"
   xmlns:cc="http://creativecommons.org/ns#"
   xmlns:rdf="http://www.w3.org/1999/02/22-rdf-syntax-ns#"
   xmlns:svg="http://www.w3.org/2000/svg"
   xmlns="http://www.w3.org/2000/svg"
   xmlns:xlink="http://www.w3.org/1999/xlink"
   xmlns:sodipodi="http://sodipodi.sourceforge.net/DTD/sodipodi-0.dtd"
   xmlns:inkscape="http://www.inkscape.org/namespaces/inkscape"
   inkscape:export-ydpi="215.44792"
   inkscape:export-xdpi="215.44792"
   inkscape:export-filename="/home/byron/art/cards/final/ace_of_spades2.png"
   sodipodi:docname="ace_of_spades.svg"
   inkscape:version="1.0 (4035a4fb49, 2020-05-01)"
   version="1.1"
   id="svg2"
   xml:space="preserve"
   viewBox="0 0 167.0869141 242.6669922"
   height="242.6669922pt"
   width="167.0869141pt"><metadata
   id="metadata43"><rdf:RDF><cc:Work
       rdf:about=""><dc:format>image/svg+xml</dc:format><dc:type
         rdf:resource="http://purl.org/dc/dcmitype/StillImage" /><dc:title /></cc:Work></rdf:RDF></metadata><defs
   id="defs41"><radialGradient
     gradientUnits="userSpaceOnUse"
     gradientTransform="matrix(-1.5842693,-0.02349808,0.03071979,-2.4775745,-0.24856378,-26.713507)"
     r="7.9997029"
     fy="-8.8345356"
     fx="-0.15782039"
     cy="-8.8345356"
     cx="-0.15782039"
     id="radialGradient3781"
     xlink:href="#linearGradient3773"
     inkscape:collect="always" /><linearGradient
     id="linearGradient3773"><stop
       id="stop3775"
       offset="0"
       style="stop-color:#000000;stop-opacity:1;" /><stop
       id="stop3777"
       offset="1"
       style="stop-color:#000000;stop-opacity:0.64885497;" /></linearGradient><radialGradient
     inkscape:collect="always"
     xlink:href="#linearGradient3773"
     id="radialGradient3990"
     gradientUnits="userSpaceOnUse"
     gradientTransform="matrix(-1.5842693,-0.02349808,0.03071979,-2.4775745,-0.24856378,-26.713507)"
     cx="-0.15782039"
     cy="-8.8345356"
     fx="-0.15782039"
     fy="-8.8345356"
     r="7.9997029" /><linearGradient
     id="linearGradient3051"><stop
       id="stop3053"
       offset="0"
       style="stop-color:#000000;stop-opacity:1;" /><stop
       id="stop3055"
       offset="1"
       style="stop-color:#000000;stop-opacity:0.64885497;" /></linearGradient><radialGradient
     r="81.902771"
     fy="509.47577"
     fx="168.02475"
     cy="509.47577"
     cx="168.02475"
     gradientTransform="matrix(1.2565605,-0.77740644,0.33663816,0.5361257,-221.20213,359.24256)"
     gradientUnits="userSpaceOnUse"
     id="radialGradient3161"
     xlink:href="#linearGradient3784-4"
     inkscape:collect="always" /><linearGradient
     id="linearGradient3784-4"><stop
       id="stop3786-8"
       offset="0"
       style="stop-color:#ffffff;stop-opacity:0.4351145;" /><stop
       id="stop3788-6"
       offset="1"
       style="stop-color:#000000;stop-opacity:0;" /></linearGradient><filter
     height="1.3287311"
     y="-0.16436553"
     width="1.6613785"
     x="-0.33068925"
     id="filter3803"
     inkscape:collect="always"
     color-interpolation-filters="sRGB"><feGaussianBlur
       id="feGaussianBlur3805"
       stdDeviation="14.131424"
       inkscape:collect="always" /></filter><radialGradient
     r="81.902771"
     fy="509.47577"
     fx="168.02475"
     cy="509.47577"
     cx="168.02475"
     gradientTransform="matrix(1.2565605,-0.77740644,0.33663816,0.5361257,-221.20213,359.24256)"
     gradientUnits="userSpaceOnUse"
     id="radialGradient3163"
     xlink:href="#linearGradient3784-4-5"
     inkscape:collect="always" /><linearGradient
     id="linearGradient3784-4-5"><stop
       id="stop3786-8-0"
       offset="0"
       style="stop-color:#ffffff;stop-opacity:0.48854962;" /><stop
       id="stop3788-6-3"
       offset="1"
       style="stop-color:#000000;stop-opacity:0;" /></linearGradient><filter
     height="1.3287311"
     y="-0.16436553"
     width="1.6613785"
     x="-0.33068925"
     id="filter3803-1"
     inkscape:collect="always"
     color-interpolation-filters="sRGB"><feGaussianBlur
       id="feGaussianBlur3805-8"
       stdDeviation="14.131424"
       inkscape:collect="always" /></filter><radialGradient
     r="81.902771"
     fy="509.47577"
     fx="168.02475"
     cy="509.47577"
     cx="168.02475"
     gradientTransform="matrix(1.2565605,-0.77740644,0.33663816,0.5361257,-221.20213,359.24256)"
     gradientUnits="userSpaceOnUse"
     id="radialGradient3165"
     xlink:href="#linearGradient3784-4-1"
     inkscape:collect="always" /><linearGradient
     id="linearGradient3784-4-1"><stop
       id="stop3786-8-03"
       offset="0"
       style="stop-color:#ffffff;stop-opacity:0.23664123;" /><stop
       id="stop3788-6-6"
       offset="1"
       style="stop-color:#000000;stop-opacity:0;" /></linearGradient><filter
     height="1.3287311"
     y="-0.16436553"
     width="1.6613785"
     x="-0.33068925"
     id="filter3803-73"
     inkscape:collect="always"
     color-interpolation-filters="sRGB"><feGaussianBlur
       id="feGaussianBlur3805-2"
       stdDeviation="14.131424"
       inkscape:collect="always" /></filter></defs><sodipodi:namedview
   inkscape:document-rotation="0"
   inkscape:current-layer="svg2"
   inkscape:window-maximized="1"
   inkscape:window-y="-8"
   inkscape:window-x="-8"
   inkscape:cy="144.37358"
   inkscape:cx="106.02254"
   inkscape:zoom="2.4336873"
   showgrid="false"
   id="namedview39"
   inkscape:window-height="1377"
   inkscape:window-width="2560"
   inkscape:pageshadow="2"
   inkscape:pageopacity="0"
   guidetolerance="10"
   gridtolerance="10"
   objecttolerance="10"
   borderopacity="1"
   bordercolor="#666666"
   pagecolor="#ffffff" />
	<g
   style="fill-rule:nonzero;clip-rule:nonzero;stroke:#000000;stroke-miterlimit:4;"
   id="Layer_x0020_1">
		<path
   id="path5"
   d="M166.8369141,235.5478516c0,3.7773438-3.0869141,6.8691406-6.8710938,6.8691406H7.1108398c-3.7749023,0-6.8608398-3.0917969-6.8608398-6.8691406V7.1201172C0.25,3.3427734,3.3359375,0.25,7.1108398,0.25h152.8549805    c3.7841797,0,6.8710938,3.0927734,6.8710938,6.8701172v228.4277344z"
   style="fill:#FFFFFF;stroke-width:0.5;" />
		<g
   id="g7"
   style="stroke:none;">
			<g
   id="g9">
				
			</g>
			
		</g>
		<g
   id="g15">
			
		</g>
		<g
   id="g19">
			
		</g>
		<g
   id="g23"
   style="stroke:none;">
			<g
   id="g25">
				
			</g>
			
		</g>
		<g
   id="g31"
   style="stroke:none;">
			<g
   id="g33">
				
			</g>
			
		</g>
	</g>
<g
   style="font-style:normal;font-weight:normal;line-height:0%;font-family:'Bitstream Vera Sans';letter-spacing:0px;word-spacing:0px;fill:#000000;fill-opacity:1;stroke:none"
   id="text3788"
   aria-label="A"><path
     id="path880"
     style="font-style:normal;font-variant:normal;font-weight:normal;font-stretch:normal;font-size:32px;line-height:1.25;font-family:Arial;-inkscape-font-specification:Arial"
     d="M 6.1987915,28.013288 14.995667,5.1070385 h 3.265625 l 9.375,22.9062495 h -3.453125 l -2.671875,-6.9375 h -9.578125 l -2.5156255,6.9375 z m 6.6093755,-9.40625 h 7.765625 l -2.390625,-6.34375 q -1.09375,-2.8906245 -1.625,-4.7499995 -0.4375,2.203125 -1.234375,4.3749995 z" /></g>

<g
   style="font-style:normal;font-weight:normal;line-height:0%;font-family:'Bitstream Vera Sans';letter-spacing:0px;word-spacing:0px;fill:#000000;fill-opacity:1;stroke:none"
   id="text3788-2"
   transform="scale(-1)"
   aria-label="A"><path
     id="path883"
     style="font-style:normal;font-variant:normal;font-weight:normal;font-stretch:normal;font-size:32px;line-height:1.25;font-family:Arial;-inkscape-font-specification:Arial"
     d="m -160.95497,-215.09668 8.79687,-22.90625 h 3.26563 l 9.375,22.90625 h -3.45313 l -2.67187,-6.9375 h -9.57813 l -2.51562,6.9375 z m 6.60937,-9.40625 h 7.76563 l -2.39063,-6.34375 q -1.09375,-2.89062 -1.625,-4.75 -0.4375,2.20313 -1.23437,4.375 z" /></g>

<g
   id="g3886"
   transform="matrix(0.19861112,0,0,0.19861112,10.08352,15.428943)"><g
     transform="matrix(31.754082,0,0,29.033123,371.73772,526.70948)"
     id="layer1-7-1"
     style="fill:url(#radialGradient3781);fill-opacity:1"><path
       id="sl-5"
       d="M 7.989,3.103 C 7.747,-0.954 0.242,-8.59 0,-10.5 c -0.242,1.909 -7.747,9.545 -7.989,13.603 -0.169,2.868 1.695,4.057 3.39,4.057 1.8351685,-0.021581 3.3508701,-2.8006944 3.873,-3.341 0.242,0.716 -1.603,6.682 -2.179,6.682 l 5.811,0 C 2.33,10.501 0.485,4.535 0.727,3.819 1.1841472,4.3152961 2.5241276,7.0768295 4.601,7.16 6.295,7.159 8.158,5.971 7.989,3.103 z"
       inkscape:connector-curvature="0"
       style="fill:url(#radialGradient3990);fill-opacity:1"
       sodipodi:nodetypes="cccccccccc" /></g><path
     style="fill:url(#radialGradient3161);fill-opacity:1;stroke:none;filter:url(#filter3803)"
     d="m 122.35696,574.3828 c 0,0 -13.12321,-65.06668 17.80149,-92.97385 34.76052,-31.36871 150.11131,-71.19514 150.11131,-71.19514 0,0 -81.65171,84.60419 -110.11131,108.338 -27.21033,22.69199 -57.80149,55.83099 -57.80149,55.83099 z"
     id="path3762-6"
     inkscape:connector-curvature="0"
     sodipodi:nodetypes="cscsc"
     transform="matrix(1.6424579,-1.0823671,1.3447782,1.5795529,-783.50446,-14.751674)" /><path
     style="fill:url(#radialGradient3163);fill-opacity:1;stroke:none;filter:url(#filter3803-1)"
     d="m 122.35696,574.3828 c 0,0 -13.12321,-65.06668 17.80149,-92.97385 34.76052,-31.36871 150.11131,-71.19514 150.11131,-71.19514 0,0 -81.65171,84.60419 -110.11131,108.338 -27.21033,22.69199 -57.80149,55.83099 -57.80149,55.83099 z"
     id="path3762-6-0"
     inkscape:connector-curvature="0"
     sodipodi:nodetypes="cscsc"
     transform="matrix(2.4895276,-0.12376278,1.1284583,2.8922395,-742.11602,-945.22788)" /><path
     style="fill:url(#radialGradient3165);fill-opacity:1;stroke:none;filter:url(#filter3803-73)"
     d="m 122.35696,574.3828 c 0,0 -13.12321,-65.06668 17.80149,-92.97385 34.76052,-31.36871 150.11131,-71.19514 150.11131,-71.19514 0,0 -81.65171,84.60419 -110.11131,108.338 -27.21033,22.69199 -57.80149,55.83099 -57.80149,55.83099 z"
     id="path3762-6-2"
     inkscape:connector-curvature="0"
     sodipodi:nodetypes="cscsc"
     transform="matrix(1.9426966,-0.30840977,0.57340172,1.9936465,-290.37789,-568.34554)" /><path
     style="fill:#fffeff;fill-opacity:1;fill-rule:nonzero;stroke:none"
     d="m 19.993242,106.65013 0,854.28121 677.156298,0 0,-854.28121 -677.156298,0 z M 371.74324,221.86888 c 7.6845,55.45326 245.9718,277.15012 253.6563,394.93746 5.3664,83.267 -53.7711,117.7523 -107.5625,117.7813 -65.9492,-2.4147 -108.515,-82.591 -123.0313,-97 -7.6845,20.7877 50.8972,194 69.1875,194 l -184.5,0 c 18.2904,0 76.872,-173.2123 69.1875,-194 -16.5797,15.6867 -64.7259,96.3734 -123,97 -53.8231,0 -112.9914,-34.5143 -107.625,-117.7813 7.6845,-117.81637 246.003,-339.51323 253.6875,-394.93746 z"
     id="rect3865"
     inkscape:connector-curvature="0" /></g><g
   id="layer1-7"
   transform="matrix(1.5085945,0,0,1.3793253,16.929041,45.066155)"><path
     sodipodi:nodetypes="cccccccccc"
     style="fill:#000000"
     inkscape:connector-curvature="0"
     d="M 7.989,3.103 C 7.747,-0.954 0.242,-8.59 0,-10.5 c -0.242,1.909 -7.747,9.545 -7.989,13.603 -0.169,2.868 1.695,4.057 3.39,4.057 1.8351685,-0.021581 3.3508701,-2.8006944 3.873,-3.341 0.242,0.716 -1.603,6.682 -2.179,6.682 l 5.811,0 C 2.33,10.501 0.485,4.535 0.727,3.819 1.1841472,4.3152961 2.5241276,7.0768295 4.601,7.16 6.295,7.159 8.158,5.971 7.989,3.103 z"
     id="sl" /></g><g
   id="layer1-7-8"
   transform="matrix(-1.5085945,0,0,-1.3793253,150.22472,198.04381)"><path
     sodipodi:nodetypes="cccccccccc"
     style="fill:#000000"
     inkscape:connector-curvature="0"
     d="M 7.989,3.103 C 7.747,-0.954 0.242,-8.59 0,-10.5 c -0.242,1.909 -7.747,9.545 -7.989,13.603 -0.169,2.868 1.695,4.057 3.39,4.057 1.8351685,-0.021581 3.3508701,-2.8006944 3.873,-3.341 0.242,0.716 -1.603,6.682 -2.179,6.682 l 5.811,0 C 2.33,10.501 0.485,4.535 0.727,3.819 1.1841472,4.3152961 2.5241276,7.0768295 4.601,7.16 6.295,7.159 8.158,5.971 7.989,3.103 z"
     id="sl-0" /></g></svg>
